<svg xmlns="http://www.w3.org/2000/svg" width="512" height="512" viewBox="0 0 256 256" role="img" aria-labelledby="title desc">
  <title id="title">FallGuard Logo Escudo Pulso</title>
  <desc id="desc">Escudo de proteccion con una linea de estado de vida centrada.</desc>
  <defs>
    <linearGradient id="shieldGrad" x1="34" y1="18" x2="214" y2="238" gradientUnits="userSpaceOnUse">
      <stop offset="0" stop-color="#6366F1" />
      <stop offset="1" stop-color="#14B8A6" />
    </linearGradient>
    <linearGradient id="pulseGrad" x1="56" y1="120" x2="200" y2="145" gradientUnits="userSpaceOnUse">
      <stop offset="0" stop-color="#FFFFFF" />
      <stop offset="1" stop-color="#06B6D4" />
    </linearGradient>
  </defs>

  <path d="M128 16 206 48v58c0 56-32 104-78 134-46-30-78-78-78-134V48z" fill="url(#shieldGrad)" />
  <path d="M128 25 196 53v53c0 50-28 92-68 119-40-27-68-69-68-119V53z" fill="none" stroke="#ffffff" stroke-opacity="0.22" stroke-width="4" />

  <path d="M56 134h30l9-13 10 35 15-54 15 33 8-12h36" fill="none" stroke="#ffffff" stroke-opacity="0.25" stroke-width="12" stroke-linecap="round" stroke-linejoin="round" />
  <path d="M56 134h30l9-13 10 35 15-54 15 33 8-12h36" fill="none" stroke="url(#pulseGrad)" stroke-width="7" stroke-linecap="round" stroke-linejoin="round" />
</svg>
